<?xml version="1.0" encoding="UTF-8"?><svg id="Capa_1" xmlns="http://www.w3.org/2000/svg" viewBox="0 0 20 19.72"><path d="M10.62,.22c-.37-.29-.88-.29-1.25,0L0,7.72H20L10.62,.22Z" fill="#386969"/><polygon points="10 11.72 12.5 13.72 20 7.72 0 7.72 7.5 13.72 10 11.72" fill="#386969"/><path d="M7.5,13.72l1.87,1.5c.37,.29,.88,.29,1.25,0l1.87-1.5-2.5-2-2.5,2h.01Z" fill="#014358"/><rect x="2" y="2.72" width="16" height="16" rx="1" ry="1" fill="#fff"/><path d="M12.5,13.72l7.17,5.74c.2-.18,.33-.45,.33-.74V7.72s-7.5,6-7.5,6Z" fill="#549d9d"/><path d="M0,7.72v11c0,.29,.13,.56,.33,.74l7.17-5.74L0,7.72Z" fill="#549d9d"/><path d="M10.62,15.22c-.37,.29-.88,.29-1.25,0l-1.87-1.5L.33,19.46c.18,.16,.41,.26,.67,.26H19c.26,0,.49-.1,.67-.26l-7.17-5.74-1.87,1.5h-.01Z" fill="#458282"/><g><circle cx="6.28" cy="7.98" r=".9" fill="#549d9d"/><circle cx="8.72" cy="7.98" r=".9" fill="#549d9d"/><circle cx="11.23" cy="7.98" r=".9" fill="#549d9d"/><circle cx="13.72" cy="7.98" r=".9" fill="#549d9d"/></g></svg>