<?xml version="1.0" encoding="UTF-8"?><svg id="Capa_1" xmlns="http://www.w3.org/2000/svg" viewBox="0 0 19 23"><path d="m17,5.74v4.76h-2.86v-3.08c0-.53-.09-1.02-.27-1.48-.63-1.71-2.35-2.94-4.37-2.94s-3.74,1.23-4.37,2.94c-.18.46-.27.95-.27,1.48v3.08h-2.86v-4.76c0-.68.15-1.32.44-1.92C3.46,1.6,6.24,0,9.5,0s6.04,1.6,7.06,3.82c.29.6.44,1.24.44,1.92Z" fill="#f4f3f4"/><rect x="3" y="10.5" width="13" height="12.5" fill="#458282"/><path d="m16,10.5h3v11.5c0,.55-.45,1-1,1h-2v-12.5h0Z" fill="#386969"/><path d="m0,10.5h3v12.5H1c-.55,0-1-.45-1-1v-11.5h0Z" fill="#549d9d"/><circle cx="9.5" cy="15.5" r="1.5" fill="#485358"/><polygon points="9.5 16 9.5 16 8.5 19 10.5 19 9.5 16" fill="#485358"/></svg>