<?xml version="1.0" encoding="utf-8"?>
<!-- Generator: Adobe Illustrator 27.0.0, SVG Export Plug-In . SVG Version: 6.00 Build 0)  -->
<svg version="1.1" id="Capa_1" xmlns="http://www.w3.org/2000/svg" xmlns:xlink="http://www.w3.org/1999/xlink" x="0px" y="0px"
	 viewBox="0 0 19 23" style="enable-background:new 0 0 19 23;" xml:space="preserve">
<style type="text/css">
	.st0{fill:#386969;}
	.st1{fill:#549D9D;}
	.st2{fill:#458282;}
</style>
<path class="st0" d="M9.3,12.9c0.9,0,1.7-0.2,2.4-0.6c0.4-0.2,0.7-0.4,1.1-0.7c0.8-0.6,1.6-0.6,2.5-0.3c1.1,0.4,1.9,1.1,2.5,2.1
	c0.6,1,0.8,2.1,1,3.3c0.1,0.8,0.1,1.6,0.1,2.5c0,1.8-1.2,3.2-3,3.6c-0.1,0-0.3,0-0.4,0.1c-2.1,0-4.1,0-6.2,0c0-3.2,0-6.5,0-9.7
	C9.3,13.1,9.3,13,9.3,12.9z"/>
<path class="st1" d="M9.3,12.9c0,0.1,0,0.2,0,0.3c0,3.2,0,6.5,0,9.7c-2,0-3.9,0-5.9,0c-0.3-0.1-0.6-0.1-0.8-0.2
	c-1.5-0.5-2.4-1.6-2.5-3.1c-0.2-1.9,0.1-3.7,0.8-5.4c0.5-1.2,1.2-2.2,2.5-2.7c0.6-0.2,1.2-0.3,1.8-0.3c0.3,0,0.6,0.2,0.9,0.4
	c0.7,0.5,1.4,0.9,2.2,1.1C8.6,12.8,8.9,12.9,9.3,12.9z"/>
<path class="st2" d="M9.3,0.2c1.7,0,3,0.6,4.1,1.9c0.6,0.7,1.1,1.5,1.2,2.4c0.3,1.8,0,3.4-1.3,4.8c-0.8,0.9-1.8,1.5-3,1.7
	c-0.4,0.1-0.7,0.1-1.1,0.1C9.3,7.5,9.3,3.9,9.3,0.2z"/>
<path class="st1" d="M9.3,0.2c0,3.6,0,7.3,0,10.9c-1.2,0-2.4-0.4-3.4-1.2C4.8,9,4.1,7.8,3.9,6.3C3.6,3.8,5,1.6,7.1,0.7
	C7.8,0.4,8.5,0.2,9.3,0.2z"/>
</svg>
