<?xml version="1.0" encoding="UTF-8"?><svg id="Capa_1" xmlns="http://www.w3.org/2000/svg" viewBox="0 0 48 41"><path d="M30.93,0h4.82C42.51,0,48,5.49,48,12.25h0c0,2.62-2.13,4.75-4.75,4.75h-12.32c-2.62,0-4.75-2.13-4.75-4.75V4.75C26.18,2.13,28.31,0,30.93,0Z" fill="#d2e9e9"/><path d="M4.75,0h12.32C19.69,0,21.82,2.13,21.82,4.75h0c0,6.76-5.49,12.25-12.25,12.25H4.75C2.13,17,0,14.87,0,12.25V4.75C0,2.13,2.13,0,4.75,0Z" transform="translate(21.82 17) rotate(-180)" fill="#c4dfdf"/><path d="M29.25,22.5h3c6.76,0,12.25,5.49,12.25,12.25h0c0,2.62-2.13,4.75-4.75,4.75h-10.5c-2.62,0-4.75-2.13-4.75-4.75v-7.5c0-2.62,2.13-4.75,4.75-4.75Z" transform="translate(65.5 -3.5) rotate(90)" fill="#c4dfdf"/><path d="M8.25,22.5h10.5c2.62,0,4.75,2.13,4.75,4.75h0c0,6.76-5.49,12.25-12.25,12.25h-3c-2.62,0-4.75-2.13-4.75-4.75v-7.5c0-2.62,2.13-4.75,4.75-4.75Z" transform="translate(44.5 17.5) rotate(90)" fill="#d2e9e9"/></svg>